<svg width="256px" height="256px" viewBox="0 0 24 24" fill="none" xmlns="http://www.w3.org/2000/svg"><g id="SVGRepo_bgCarrier" stroke-width="0"></g><g id="SVGRepo_tracerCarrier" stroke-linecap="round" stroke-linejoin="round"></g><g id="SVGRepo_iconCarrier"> <path opacity="0.1" d="M3 12C3 4.5885 4.5885 3 12 3C19.4115 3 21 4.5885 21 12C21 19.4115 19.4115 21 12 21C4.5885 21 3 19.4115 3 12Z" fill="#ffffff"></path> <path d="M9 12H15" stroke="#ffffff" stroke-width="0.984" stroke-linecap="round" stroke-linejoin="round"></path> <path d="M12 9L12 15" stroke="#ffffff" stroke-width="0.984" stroke-linecap="round" stroke-linejoin="round"></path> <path d="M3 12C3 4.5885 4.5885 3 12 3C19.4115 3 21 4.5885 21 12C21 19.4115 19.4115 21 12 21C4.5885 21 3 19.4115 3 12Z" stroke="#ffffff" stroke-width="0.984"></path> </g></svg>